<svg width="14" height="14" viewBox="0 0 14 14"  xmlns="http://www.w3.org/2000/svg">
   <path
      d="M13.6923 12.1334L10.4106 8.8517C11.149 7.75779 11.5319 6.3904 11.3404 4.91361C10.9849 2.39761 8.93381 0.373865 6.44515 0.0456908C2.72584 -0.419223 -0.419162 2.72578 0.0457518 6.44509C0.373926 8.93375 2.39767 10.9848 4.91367 11.3404C6.39046 11.5318 7.75785 11.1489 8.87911 10.4105L12.1335 13.6923C12.5711 14.1025 13.2548 14.1025 13.6923 13.6923C14.1026 13.2547 14.1026 12.571 13.6923 12.1334ZM2.17889 5.67935C2.17889 3.765 3.73771 2.17882 5.67941 2.17882C7.59376 2.17882 9.17994 3.765 9.17994 5.67935C9.17994 7.62105 7.59376 9.17988 5.67941 9.17988C3.73771 9.17988 2.17889 7.62105 2.17889 5.67935Z"
       />
</svg>